<?xml version="1.0" ?><svg id="Layer_1" style="enable-background:new 0 0 62 62;" version="1.1" viewBox="0 0 62 62" xml:space="preserve" xmlns="http://www.w3.org/2000/svg" xmlns:xlink="http://www.w3.org/1999/xlink"><style type="text/css">
	.st0{fill:#5FD2FF;}
	.st1{fill:#FFFFFF;}
	.st2{fill:#0082ED;}
	.st3{fill:#2BA8FC;}
	.st4{fill:#CECECE;}
	.st5{fill:#F92B75;}
	.st6{fill:#3BB0FF;}
	.st7{fill:#CE004F;}
	.st8{fill:none;stroke:#ED0C68;stroke-width:5;stroke-linecap:round;stroke-linejoin:round;stroke-miterlimit:10;}
	.st9{fill:#ED0C68;}
	.st10{fill:#78DED4;}
	.st11{fill:#1E5363;}
	.st12{fill:#54C8E8;}
	.st13{fill:#F4F4F4;}
	.st14{fill:#0C82EB;}
	.st15{fill:#00B2E3;}
	.st16{fill:#68A2B9;}
	.st17{fill:#A2C5D3;}
	.st18{fill:#76777A;}
	.st19{fill:#A7A8A9;}
	.st20{fill:#D6D6D6;}
	.st21{fill:none;stroke:#F92B75;stroke-width:5;stroke-linecap:round;stroke-linejoin:round;stroke-miterlimit:10;}
	.st22{fill:#FD4A5C;}
	.st23{fill:#FF8E9F;}
	.st24{fill:none;stroke:#F458A3;stroke-width:5;stroke-linecap:round;stroke-linejoin:round;stroke-miterlimit:10;}
	.st25{fill:#FFB259;}
	.st26{fill:#F32735;}
	.st27{fill:#FF9E18;}
	.st28{fill:#FFC27A;}
	.st29{fill:#FFC56D;}
	.st30{fill:none;stroke:#FD4A5C;stroke-width:5;stroke-linecap:round;stroke-linejoin:round;stroke-miterlimit:10;}
	.st31{fill:#0069A7;}
	.st32{fill:#D8D8D8;}
	.st33{fill:#8CB7C9;}
	.st34{fill:#65BAAF;}
	.st35{fill:#00AF9A;}
	.st36{fill:#00C4B3;}
	.st37{fill:#19D3C5;}
	.st38{fill:none;stroke:#54C8E8;stroke-width:5;stroke-linecap:round;stroke-linejoin:round;stroke-miterlimit:10;}
	.st39{fill:#8331A7;}
	.st40{fill:#009383;}
	.st41{fill:#98989A;}
	.st42{fill:#636569;}
	.st43{fill:#898A8D;}
	.st44{fill:#FFB548;}
	.st45{fill:none;stroke:#FFB548;stroke-width:5;stroke-linecap:round;stroke-linejoin:round;stroke-miterlimit:10;}
	.st46{fill:#ED40A9;}
	.st47{fill:#CB007B;}
	.st48{fill:#E50695;}
	.st49{fill:#D7282F;}
	.st50{fill:#E5E5E5;}
	.st51{fill:#FFA4B4;}
	.st52{fill:#F6A7D7;}
	.st53{fill:#F478C4;}
	.st54{fill:#E0C7E6;}
	.st55{fill:#B980D0;}
	.st56{fill:#D9B7E2;}
	.st57{fill:#BADF93;}
	.st58{fill:#4C9C2E;}
	.st59{fill:#3DAE2B;}
	.st60{fill:#AADA91;}
	.st61{fill:#6ABF4B;}
	.st62{fill:#EFB8A9;}
	.st63{fill:#FECB8B;}
	.st64{fill:#BDE8EF;}
	.st65{fill:#CCA1DD;}
	.st66{fill:#B2B2B2;}
	.st67{fill:none;stroke:#FF8300;stroke-width:5;stroke-linecap:round;stroke-linejoin:round;stroke-miterlimit:10;}
	.st68{fill:none;stroke:#FF9E18;stroke-width:5;stroke-linecap:round;stroke-linejoin:round;stroke-miterlimit:10;}
	.st69{fill:#96DAEA;}
	.st70{fill:#FF8300;}
	.st71{fill:none;stroke:#6ABF4B;stroke-width:5;stroke-linecap:round;stroke-linejoin:round;stroke-miterlimit:10;}
	.st72{fill:none;}
	.st73{fill:#444444;}
	.st74{fill:#FDCF85;}
</style><g><g><path class="st13" d="M26.43,59.5c-9.56,0-17.35-7.78-17.35-17.35c0-8.11,5.75-15.24,13.67-16.96c2.58-0.55,5.13,1.08,5.69,3.67    c0.56,2.58-1.08,5.13-3.67,5.69c-3.55,0.77-6.12,3.96-6.12,7.6c0,4.29,3.49,7.78,7.78,7.78s7.78-3.49,7.78-7.78V7.28    c0-2.64,2.14-4.78,4.78-4.78c2.64,0,4.78,2.14,4.78,4.78c0,2.4,1.96,4.36,4.36,4.36c2.64,0,4.78,2.14,4.78,4.78    s-2.14,4.78-4.78,4.78c-1.52,0-2.99-0.25-4.36-0.7v21.64C43.78,51.72,35.99,59.5,26.43,59.5z"/></g><g><path class="st22" d="M26.43,62C15.49,62,6.58,53.1,6.58,42.15c0-9.28,6.58-17.44,15.64-19.4c3.93-0.84,7.81,1.67,8.66,5.58    c0.41,1.9,0.06,3.85-1,5.48c-1.05,1.64-2.68,2.76-4.58,3.17c-2.41,0.52-4.15,2.69-4.15,5.16c0,2.91,2.37,5.28,5.28,5.28    s5.28-2.37,5.28-5.28V7.28c0-4.02,3.27-7.28,7.28-7.28s7.28,3.27,7.28,7.28c0,1.02,0.83,1.86,1.86,1.86    c4.02,0,7.28,3.27,7.28,7.28c0,4.02-3.27,7.28-7.28,7.28c-0.62,0-1.24-0.04-1.86-0.1v18.55C46.27,53.1,37.37,62,26.43,62z     M23.76,27.59c-0.16,0-0.32,0.02-0.48,0.05c-6.77,1.46-11.69,7.57-11.69,14.51c0,8.19,6.66,14.85,14.85,14.85    s14.85-6.66,14.85-14.85V20.51c0-0.8,0.38-1.56,1.03-2.03c0.65-0.47,1.49-0.6,2.25-0.35c1.15,0.38,2.35,0.57,3.58,0.57    c1.26,0,2.28-1.02,2.28-2.28c0-1.26-1.02-2.28-2.28-2.28c-3.78,0-6.86-3.08-6.86-6.86c0-1.26-1.02-2.28-2.28-2.28    s-2.28,1.02-2.28,2.28v34.87c0,5.67-4.61,10.28-10.28,10.28c-5.67,0-10.28-4.61-10.28-10.28c0-4.81,3.4-9.03,8.1-10.05    c0.6-0.13,1.11-0.48,1.44-1s0.44-1.12,0.31-1.72C25.77,28.32,24.81,27.59,23.76,27.59z"/></g><g><path class="st37" d="M52.92,18.93c-1.38,0-2.5-1.12-2.5-2.5c0-1.26-1.02-2.28-2.28-2.28c-1.38,0-2.5-1.12-2.5-2.5    s1.12-2.5,2.5-2.5c4.02,0,7.28,3.27,7.28,7.28C55.42,17.81,54.3,18.93,52.92,18.93z"/></g><g><path class="st37" d="M26.43,52.43c-1.38,0-2.5-1.12-2.5-2.5s1.12-2.5,2.5-2.5c2.91,0,5.28-2.37,5.28-5.28V7.28    c0-4.02,3.27-7.28,7.28-7.28c1.38,0,2.5,1.12,2.5,2.5S40.37,5,38.99,5c-1.26,0-2.28,1.02-2.28,2.28v34.87    C36.71,47.82,32.1,52.43,26.43,52.43z"/></g><g><path class="st37" d="M9.08,44.65c-1.38,0-2.5-1.12-2.5-2.5c0-9.28,6.58-17.44,15.64-19.4c1.35-0.29,2.68,0.57,2.97,1.92    c0.29,1.35-0.57,2.68-1.92,2.97c-6.78,1.46-11.7,7.57-11.7,14.51C11.58,43.53,10.46,44.65,9.08,44.65z"/></g></g></svg>